<svg xmlns:dc="http://purl.org/dc/elements/1.1/" xmlns:cc="http://creativecommons.org/ns#" xmlns:rdf="http://www.w3.org/1999/02/22-rdf-syntax-ns#" xmlns:svg="http://www.w3.org/2000/svg" xmlns="http://www.w3.org/2000/svg" xmlns:sodipodi="http://sodipodi.sourceforge.net/DTD/sodipodi-0.dtd" xmlns:inkscape="http://www.inkscape.org/namespaces/inkscape" viewBox="0 0 26.458333 33.0729175" version="1.1" x="0px" y="0px"><g transform="translate(131.02975,-196.70833)"><path style="color:#000000;font-style:normal;font-variant:normal;font-weight:normal;font-stretch:normal;font-size:medium;line-height:normal;font-family:sans-serif;font-variant-ligatures:normal;font-variant-position:normal;font-variant-caps:normal;font-variant-numeric:normal;font-variant-alternates:normal;font-feature-settings:normal;text-indent:0;text-align:start;text-decoration:none;text-decoration-line:none;text-decoration-style:solid;text-decoration-color:#000000;letter-spacing:normal;word-spacing:normal;text-transform:none;writing-mode:lr-tb;direction:ltr;text-orientation:mixed;dominant-baseline:auto;baseline-shift:baseline;text-anchor:start;white-space:normal;shape-padding:0;clip-rule:nonzero;display:inline;overflow:visible;visibility:visible;opacity:1;isolation:auto;mix-blend-mode:normal;color-interpolation:sRGB;color-interpolation-filters:linearRGB;solid-color:#000000;solid-opacity:1;vector-effect:none;fill:#000000;fill-opacity:1;fill-rule:nonzero;stroke:none;stroke-width:2.59291387;stroke-linecap:round;stroke-linejoin:round;stroke-miterlimit:4;stroke-dasharray:none;stroke-dashoffset:86.95724487;stroke-opacity:1;color-rendering:auto;image-rendering:auto;shape-rendering:auto;text-rendering:auto;enable-background:accumulate" d="m -113.77115,198.85175 c -1.3307,-0.0211 -2.57143,0.75566 -3.12656,1.98384 -0.47095,-0.21511 -0.99562,-0.31907 -1.53174,-0.28695 -0.21426,0.0127 -0.43042,0.0477 -0.64561,0.10522 -0.47924,0.12848 -0.90488,0.35922 -1.25962,0.66206 -0.27385,-0.10946 -0.55902,-0.18299 -0.84825,-0.2206 -1.04401,-0.13608 -2.13949,0.18806 -2.92498,0.91042 -0.50561,0.4483 -0.8652,1.03737 -1.05461,1.67639 a 0.27013324,0.27013324 0 0 0 -0.001,0.004 c -0.0423,-0.0127 -0.0832,-0.0211 -0.12678,-0.0296 -0.35498,-0.0604 -0.69551,0.0985 -0.94067,0.35077 -0.0866,0.0892 -0.14622,0.2058 -0.20792,0.31949 -0.22229,-0.35204 -0.47509,-0.70309 -0.78076,-0.987 -0.23539,-0.21849 -0.49128,-0.39809 -0.77641,-0.48925 -0.14242,-0.0456 -0.29541,-0.0655 -0.44788,-0.0537 l -9e-5,1.3e-4 c -0.15256,0.0127 -0.30512,0.0558 -0.44779,0.13819 -0.28061,0.16228 -0.45586,0.42814 -0.52044,0.71259 -0.0647,0.28442 -0.038,0.58548 0.0338,0.89043 0.0972,0.41331 0.28441,0.82717 0.48532,1.22264 -0.4805,-0.0127 -0.94038,0.22483 -1.16005,0.61921 -0.36725,0.65935 -0.24215,1.5215 0.23624,2.17405 -0.0296,0.004 -0.0659,-0.003 -0.0964,0.004 -0.34104,0.0866 -0.64921,0.30217 -0.77438,0.63958 -0.22271,0.59963 0.0655,1.19415 0.47644,1.65931 0.1682,0.1906 0.36894,0.35753 0.56955,0.51837 -0.3085,0.0985 -0.58577,0.29329 -0.7011,0.60412 -0.20328,0.54837 0.0211,1.09167 0.37443,1.53638 -0.33851,0.17834 -0.57099,0.5335 -0.57099,0.94038 0,0.58374 0.47827,1.06222 1.06193,1.06222 h 0.52149 v 1.75385 c 0,2.07597 1.67868,3.75591 3.75363,3.75591 h 14.56767 c 2.06426,0 3.73545,-1.66287 3.75265,-3.72404 a 0.27012308,0.27012308 0 0 0 8.2e-4,-0.0338 v -1.75381 h 0.52162 c 0.58366,0 1.06192,-0.47852 1.06192,-1.06226 0,-0.58375 -0.47826,-1.06235 -1.06192,-1.06235 h -0.0896 c 0.14157,-0.32372 0.22778,-0.64257 0.26793,-0.95158 0.33386,-0.28568 0.68842,-0.7066 0.89275,-1.06095 0.43148,-0.7481 0.5777,-1.66333 0.33682,-2.56255 -0.22187,-0.82878 -0.73571,-1.50435 -1.40001,-1.9434 0.17116,-0.82395 0.0524,-1.7129 -0.40063,-2.49798 -0.61121,-1.05981 -1.68983,-1.68531 -2.82638,-1.76619 -0.29921,-0.0211 -0.60268,-0.004 -0.9026,0.0516 0.21721,-1.65332 -0.81936,-3.25749 -2.47141,-3.70063 -0.22483,-0.0604 -0.44982,-0.0959 -0.67342,-0.10946 -0.049,-0.003 -0.0976,-0.004 -0.14665,-0.004 z m -0.0296,0.53903 c 0.2337,0.003 0.4715,0.0338 0.70816,0.0976 1.46944,0.39429 2.35551,1.86619 2.03645,3.33854 -0.18468,0.0685 -0.3664,0.15299 -0.54271,0.25484 -0.21173,0.12255 -0.40613,0.2637 -0.58261,0.42007 a 0.27012308,0.27012308 0 1 0 0.35837,0.40401 c 0.14961,-0.1327 0.31442,-0.2523 0.49441,-0.35668 1.44121,-0.83296 3.27633,-0.34062 4.10853,1.10224 0.4095,0.70981 0.49618,1.51347 0.30892,2.24851 a 0.27012308,0.27012308 0 0 0 0.0883,0.32076 0.27015943,0.27015943 0 0 0 0.008,0.008 0.27012308,0.27012308 0 0 0 0.008,0.004 0.27015943,0.27015943 0 0 0 0.0127,0.008 c 0.62702,0.36344 1.11479,0.96375 1.31747,1.72089 0.20285,0.75832 0.0794,1.52383 -0.28314,2.15297 -0.0909,0.15763 -0.24934,0.36513 -0.41923,0.55792 -0.038,-0.31907 -0.12086,-0.62123 -0.24088,-0.90049 -0.34105,-0.79424 -0.94947,-1.41044 -1.55705,-1.79603 0.038,-0.24046 0.16735,-0.4095 0.34442,-0.51993 0.21046,-0.13185 0.4887,-0.16566 0.73487,-0.0723 a 0.27023428,0.27023428 0 0 0 0.19186,-0.50526 c -0.20454,-0.0778 -0.41922,-0.1027 -0.62723,-0.0816 -0.20792,0.0211 -0.40908,0.09 -0.58619,0.20074 -0.25103,0.15679 -0.45168,0.40655 -0.54766,0.71543 -0.40992,-0.18257 -0.89575,-0.31695 -1.41264,-0.35203 -0.11706,-0.008 -0.23624,-0.0127 -0.35626,-0.008 9.8e-4,-0.0541 8.2e-4,-0.10734 -0.003,-0.1589 -0.0127,-0.21638 -0.0769,-0.40063 -0.16862,-0.55852 0.30174,-0.0127 0.63183,-0.0647 0.9378,-0.14833 0.3833,-0.10439 0.66176,-0.23835 0.85493,-0.41754 0.19313,-0.17918 0.29371,-0.44145 0.23159,-0.67667 -0.0621,-0.23539 -0.28061,-0.41416 -0.53755,-0.47133 -0.18342,-0.0423 -0.40486,-0.0254 -0.64879,0.0169 0.10016,-0.22145 0.17116,-0.42882 0.17919,-0.61371 0.008,-0.20243 -0.0761,-0.38246 -0.20243,-0.51921 a 0.27012313,0.27012313 0 0 0 -0.11072,-0.12382 c -0.004,-0.003 -0.0127,-8.2e-4 -0.0169,-0.004 l 0.002,-0.004 a 0.27012313,0.27012313 0 0 0 -0.14876,-0.0254 c -0.18172,-0.0423 -0.3795,-0.0254 -0.55023,0.0841 -0.15594,0.0993 -0.30005,0.26413 -0.44146,0.4617 -0.0854,-0.23244 -0.18214,-0.43267 -0.30892,-0.57103 -0.17792,-0.19397 -0.44238,-0.29413 -0.67714,-0.23032 v 1.3e-4 c -0.23455,0.0638 -0.41162,0.2823 -0.47015,0.53945 -0.0583,0.25695 -0.0338,0.56499 0.0668,0.94913 0.0807,0.30682 0.20201,0.6184 0.34062,0.88718 -0.0583,-1.3e-4 -0.11748,0.003 -0.17749,0.0127 -0.0549,0.008 -0.1103,0.0211 -0.16651,0.038 -0.0765,-0.28906 -0.19524,-0.55737 -0.34231,-0.81208 -0.41035,-0.7115 -1.09438,-1.26697 -1.94922,-1.49619 -0.21384,-0.0575 -0.42827,-0.0917 -0.64118,-0.10438 -0.6386,-0.038 -1.2611,0.11706 -1.79443,0.4251 a 0.23830449,0.23830449 0 0 0 -0.008,0.004 c -0.24596,0.15763 -0.56595,0.41627 -0.84056,0.71226 -0.12002,0.12932 -0.23455,0.26244 -0.32668,0.40274 l -0.0554,-0.0955 c -0.0254,-0.0427 -0.0507,-0.0841 -0.0773,-0.1251 a 0.27012308,0.27012308 0 0 0 -0.0169,-0.0254 c -0.55391,-0.82463 -1.51605,-1.23633 -2.45724,-1.11953 -0.26117,0.0338 -0.52031,0.10608 -0.76893,0.22187 -0.26835,-0.19905 -0.38499,-0.46791 -0.39471,-0.74962 -0.0127,-0.31991 0.12974,-0.65068 0.39218,-0.86494 a 0.27012308,0.27012308 0 0 0 -0.17582,-0.48131 0.27012308,0.27012308 0 0 0 -0.16566,0.063 c -0.39725,0.32456 -0.60733,0.81356 -0.59021,1.30226 0.0127,0.36767 0.1627,0.73842 0.45147,1.02393 -0.21299,0.16355 -0.39471,0.35541 -0.5425,0.56743 -0.11791,-0.13185 -0.26878,-0.25863 -0.48147,-0.31442 -0.33809,-0.0892 -0.65994,0.0575 -0.90079,0.28146 -0.038,-0.24807 -0.0803,-0.49872 -0.1589,-0.73377 -0.12467,-0.37316 -0.31949,-0.72874 -0.60538,-0.96688 a 0.27013324,0.27013324 0 0 0 0.0541,-0.0989 c 0.16228,-0.54799 0.47155,-1.05178 0.89724,-1.42832 a 0.27012308,0.27012308 0 0 0 0.004,-0.004 c 0.78511,-0.72266 1.97711,-0.97508 2.99428,-0.66163 -0.10692,0.13227 -0.20369,0.27215 -0.28864,0.41922 a 0.27012308,0.27012308 0 1 0 0.4677,0.27005 c 0.1234,-0.21384 0.27596,-0.40993 0.4535,-0.58358 a 0.27012308,0.27012308 0 0 0 0.0435,-0.0423 c 0.31146,-0.29075 0.69666,-0.51199 1.13812,-0.6304 0.64557,-0.17327 1.2957,-0.0959 1.85384,0.17073 -8.5e-4,0.003 -0.002,0.004 -0.002,0.008 a 0.27015919,0.27015919 0 1 0 0.52196,0.13946 c 0.34275,-1.27965 1.49938,-2.11708 2.76237,-2.10347 z m 0.64992,1.95958 a 0.27012313,0.27012313 0 0 0 -0.23793,0.13819 c -0.39133,0.67769 -1.01733,1.13047 -1.7167,1.3179 a 0.27012313,0.27012313 0 1 0 0.13946,0.52162 c 0.83206,-0.22314 1.58075,-0.76508 2.04494,-1.56922 a 0.27012313,0.27012313 0 0 0 -0.22947,-0.40866 z m -5.97272,1.22936 a 0.27012308,0.27012308 0 0 0 -0.0537,0.53278 c 0.45545,0.11664 0.81234,0.3964 1.02719,0.75249 a 0.27017443,0.27017443 0 1 0 0.46254,-0.27934 c -0.28737,-0.47607 -0.76432,-0.84492 -1.35572,-0.99651 a 0.27012308,0.27012308 0 0 0 -0.0803,-0.008 z m -9.22117,0.75275 c 0.0571,0.003 0.11706,0.0127 0.18214,0.0338 0.17411,0.0558 0.3757,0.1868 0.57339,0.37063 0.39556,0.36767 0.77109,0.93565 0.99727,1.39215 a 0.27012313,0.27012313 0 0 0 0.51169,-0.13482 c -0.0127,-0.23496 0.0871,-0.45717 0.23497,-0.60927 0.14791,-0.15213 0.33005,-0.21764 0.46296,-0.19482 0.36513,0.0621 0.60872,0.38415 0.77514,0.88173 0.16651,0.49736 0.22441,1.12827 0.22145,1.62572 h 0.003 c 2.2e-4,0.004 -0.003,0.008 -0.002,0.0169 a 0.27012313,0.27012313 0 0 0 0.53988,-0.0127 c 0,-0.004 -8.5e-4,-0.0127 -8.5e-4,-0.0169 h 4.3e-4 c -0.0127,-0.23666 0.0875,-0.47619 0.23243,-0.63167 0.14538,-0.15552 0.30766,-0.21299 0.44145,-0.17792 0.0532,0.0127 0.19525,0.15637 0.33682,0.31738 -0.27131,0.68496 -0.24849,1.47887 0.12509,2.17321 a 0.27012308,0.27012308 0 0 0 0.0169,0.0296 c 9.7e-4,0.003 0.003,0.004 0.004,0.008 0.004,0.0127 0.0127,0.0211 0.0169,0.0338 l 0.69708,1.20823 c 0.40063,0.69472 0.48608,1.44434 0.55983,2.17367 0.0169,0.15721 0.0296,0.31315 0.0494,0.46821 -1.1442,-0.88042 -2.1328,-1.83208 -2.84603,-3.4087 a 0.23830445,0.23830445 0 0 0 -0.002,-0.004 0.23830445,0.23830445 0 0 0 -0.004,-0.008 c -8.4e-4,-0.001 -0.002,-0.004 -0.003,-0.004 a 0.23830445,0.23830445 0 0 0 -0.002,-0.003 c -0.10396,-0.19482 -0.25271,-0.48887 -0.48248,-0.72333 -0.11664,-0.11876 -0.25737,-0.22483 -0.43186,-0.28019 -0.0871,-0.0296 -0.18172,-0.0423 -0.27977,-0.038 -0.0211,8.2e-4 -0.0423,0.003 -0.0609,0.004 -0.0583,-0.18848 -0.11453,-0.36724 -0.11749,-0.51744 -0.004,-0.20834 0.038,-0.36259 0.36809,-0.55348 a 0.23830445,0.23830445 0 0 0 -0.10861,-0.44628 0.23830445,0.23830445 0 0 0 -0.12974,0.0338 c -0.44057,0.25441 -0.6132,0.63636 -0.60614,0.97571 0.004,0.25441 0.0811,0.48469 0.14411,0.67681 -0.24258,0.16228 -0.38922,0.4057 -0.42637,0.66974 -0.0338,0.23244 -0.004,0.47704 0.0532,0.73952 -1.0768,0.22609 -1.96491,0.99283 -2.41587,1.98658 -0.38204,-0.2375 -0.7964,-0.54896 -1.08965,-0.881 -0.34696,-0.39303 -0.504,-0.76543 -0.37485,-1.11327 0.0469,-0.12636 0.19482,-0.2523 0.40021,-0.30428 0.20539,-0.052 0.44729,-0.0254 0.64401,0.10143 l 0.002,-0.002 c 0.004,0.003 0.008,0.008 0.0127,0.0127 a 0.27012313,0.27012313 0 0 0 0.28103,-0.46051 c -0.004,-0.003 -0.008,-0.003 -0.0169,-0.004 l 0.002,-0.003 c -0.77101,-0.43963 -1.05529,-1.48904 -0.72579,-2.08082 0.15848,-0.28441 0.66548,-0.4985 1.0615,-0.24004 a 0.27012313,0.27012313 0 0 0 0.38162,-0.36133 c -0.29076,-0.50416 -0.59457,-1.11677 -0.7145,-1.62698 -0.06,-0.25526 -0.0718,-0.4811 -0.0338,-0.64718 0.038,-0.16609 0.10734,-0.27385 0.26413,-0.36429 0.0951,-0.0549 0.18298,-0.0778 0.27849,-0.0735 z m 13.00154,1.54411 c 0.22483,0.002 0.45295,0.0338 0.68052,0.0938 0.73043,0.19567 1.30974,0.66784 1.65974,1.27441 0.14665,0.25441 0.25483,0.5097 0.31611,0.78444 -0.13185,0.0883 -0.26539,0.19905 -0.4019,0.33639 -0.10015,-0.9146 -0.74729,-1.72 -1.68712,-1.972 -0.1589,-0.0427 -0.32034,-0.0621 -0.48207,-0.0617 -0.48498,9.8e-4 -0.97047,0.18425 -1.385,0.47446 -0.39979,0.27976 -0.73977,0.66298 -0.95471,1.10621 l -0.26371,-0.45734 c 0.052,-0.14749 0.19271,-0.37443 0.38584,-0.58231 0.24089,-0.25948 0.5428,-0.50197 0.74484,-0.63197 0.41585,-0.23919 0.89348,-0.36978 1.38784,-0.3647 z m 3.66741,0.0338 c 0.0211,-0.002 0.0499,0.008 0.11411,0.0795 0.0854,0.0934 0.1982,0.29836 0.28568,0.62955 0.0254,0.0947 0.0465,0.19483 0.0647,0.29625 a 0.27012313,0.27012313 0 0 0 0.50957,0.0689 c 0.0431,-0.0896 0.0879,-0.17708 0.13524,-0.25864 0.172,-0.29836 0.33555,-0.4682 0.44386,-0.53713 0.10819,-0.0689 0.12467,-0.0537 0.15256,-0.038 0.0296,0.0169 0.0499,0.0211 0.0444,0.15129 -0.004,0.12847 -0.0714,0.35499 -0.24343,0.65322 -0.0469,0.0816 -0.0997,0.16439 -0.15594,0.24638 a 0.27012313,0.27012313 0 0 0 0.31484,0.40654 c 0.0972,-0.0338 0.1944,-0.0663 0.28864,-0.0921 0.33048,-0.09 0.5641,-0.0951 0.6875,-0.0672 0.1234,0.0296 0.12424,0.049 0.1327,0.0816 0.008,0.0338 0.0169,0.0558 -0.0765,0.14326 -0.0942,0.0875 -0.2992,0.20243 -0.62964,0.29244 -0.28694,0.0782 -0.61649,0.12594 -0.88933,0.1327 -0.27258,0.008 -0.5007,-0.0617 -0.49998,-0.0609 a 0.27012313,0.27012313 0 0 0 -0.0465,-0.0254 0.27012313,0.27012313 0 0 0 -0.0461,-0.0254 c 7.9e-4,3.7e-4 -0.17285,-0.1627 -0.30301,-0.40274 -0.13016,-0.24004 -0.25356,-0.54956 -0.32921,-0.83739 -0.0875,-0.33133 -0.0909,-0.56634 -0.0621,-0.69189 0.0296,-0.12552 0.0528,-0.1289 0.0854,-0.13777 0.008,-0.002 0.0169,-0.004 0.0211,-0.004 z m -8.71818,0.19229 c 0.64469,0.0127 1.26494,0.33512 1.64643,0.90716 0.0871,0.15256 0.13354,0.3047 0.13481,0.42806 9.8e-4,0.12509 -0.0296,0.22102 -0.13227,0.32202 -0.21004,0.21046 -0.47822,0.2168 -0.60885,0.0959 a 0.27012308,0.27012308 0 0 0 -0.0473,-0.0423 0.27012308,0.27012308 0 0 0 -0.002,-0.002 0.27012308,0.27012308 0 0 0 -0.0127,-0.008 0.27012308,0.27012308 0 0 0 -0.36344,0.38457 c 0.0782,0.15805 0.002,0.41204 -0.25271,0.55906 -0.25822,0.14918 -0.51985,0.085 -0.61418,-0.0668 a 0.27012308,0.27012308 0 0 0 -0.0499,-0.0676 0.27012308,0.27012308 0 0 0 -0.008,-0.008 0.27012308,0.27012308 0 0 0 -0.008,-0.004 0.27012308,0.27012308 0 0 0 -0.4333,0.29033 c 0.038,0.17369 -0.10142,0.40189 -0.38795,0.47868 -0.3178,0.0849 -0.54296,0.0127 -0.69066,-0.23623 -0.33006,-0.5952 -0.33513,-1.27868 -0.0689,-1.8492 a 0.27016602,0.27016602 0 0 0 0.0254,-0.0494 c 0.17284,-0.34527 0.4461,-0.64634 0.80861,-0.85574 0,0 1.3e-4,-1.3e-4 1.3e-4,-1.3e-4 a 0.27012308,0.27012308 0 0 0 0.0917,-0.0499 c 0.31189,-0.16017 0.64541,-0.23286 0.97288,-0.2261 z m 5.13521,0.70672 c 0.1234,-0.001 0.24384,0.0127 0.35921,0.0444 0.93219,0.24976 1.49784,1.17354 1.31439,2.10694 -0.1944,0.26836 -0.39936,0.58878 -0.62009,0.97111 a 0.27012313,0.27012313 0 0 0 -3.7e-4,7.9e-4 c -0.16313,0.28568 -0.32245,0.58523 -0.47763,0.89407 -0.38837,-0.50455 -0.86194,-0.85734 -1.31599,-1.20392 -0.4663,-0.35584 -0.91393,-0.70613 -1.28413,-1.21144 0.14749,-0.47662 0.49081,-0.91875 0.91359,-1.2147 0.3478,-0.24342 0.74121,-0.38415 1.11099,-0.3871 z m -2.94806,1.12772 0.22906,0.39683 c 0.46288,0.80223 1.08136,1.28315 1.65086,1.71785 0.53253,0.40654 1.01899,0.77324 1.37453,1.32981 -0.44957,0.95927 -0.85506,1.99178 -1.19441,3.0163 h -4.34151 c -0.25653,-0.39809 -0.32161,-0.96248 -0.38965,-1.63493 -0.0735,-0.72916 -0.16101,-1.57159 -0.62385,-2.37956 a 0.2702056,0.2702056 0 0 0 -0.004,-0.008 l -0.25314,-0.43849 c 0.12255,0.004 0.2468,-0.0127 0.36935,-0.0435 0.32245,-0.0862 0.58751,-0.30597 0.71459,-0.57977 0.28357,0.10396 0.62621,0.0718 0.91519,-0.0951 0.28906,-0.16693 0.4882,-0.44779 0.53996,-0.74548 0.3009,0.0254 0.62331,-0.093 0.85925,-0.32921 0.0625,-0.0625 0.11368,-0.13185 0.15552,-0.20454 z m 6.32708,0.35964 c 0.1813,6.3e-4 0.34823,0.0803 0.55636,0.20031 0.33302,0.19229 0.52264,0.34569 0.54914,0.73483 0.0169,0.24469 -0.0532,0.60906 -0.26962,1.12662 -0.0127,0.0254 -0.0254,0.0524 -0.0338,0.079 -0.0575,0.13228 -0.1234,0.27343 -0.1999,0.42552 l -0.82488,-0.47649 a 0.27012308,0.27012308 0 0 0 -0.12847,-0.038 0.27012308,0.27012308 0 0 0 -0.142,0.50561 l 0.83942,0.48481 c -0.0211,0.0338 -0.038,0.0672 -0.0579,0.10227 -0.35753,0.61929 -0.64008,1.16318 -0.95864,1.68607 l -0.80468,-0.53608 a 0.27012308,0.27012308 0 0 0 -0.15299,-0.0473 0.27012308,0.27012308 0 0 0 -0.14664,0.49724 l 0.81271,0.54136 c -0.18341,0.27046 -0.3871,0.53988 -0.62461,0.81524 h -2.11138 c 0.33048,-0.97719 0.72219,-1.95843 1.15084,-2.8645 a 0.27012313,0.27012313 0 0 0 0.0452,-0.0947 c 0.0338,-0.0735 0.0706,-0.14665 0.10607,-0.21934 l 0.80312,0.4639 a 0.27019388,0.27019388 0 0 0 0.27047,-0.46783 l -0.82818,-0.47824 c 0.0963,-0.18341 0.1944,-0.36217 0.29329,-0.53574 0.2861,-0.49571 0.54296,-0.8723 0.77091,-1.1535 l 0.76069,0.43972 a 0.27012308,0.27012308 0 1 0 0.27005,-0.46778 l -0.65352,-0.37781 c 0.13185,-0.11959 0.25061,-0.20243 0.35541,-0.25356 0.13101,-0.0642 0.24511,-0.0921 0.35415,-0.0917 z m -13.51978,0.99092 c 0.0423,-0.002 0.079,0.004 0.11706,0.0169 0.0761,0.0254 0.15679,0.0786 0.23624,0.15974 0.10945,0.11157 0.19186,0.27427 0.2785,0.42637 -0.15933,0.098 -0.37993,0.22314 -0.64837,0.33174 -0.14072,0.0571 -0.21172,0.0824 -0.28314,0.10777 -0.0338,6.3e-4 -0.0659,0.001 -0.0989,0.003 -0.049,-0.23159 -0.10354,-0.47057 -0.0841,-0.60868 0.0296,-0.2037 0.0904,-0.3047 0.3402,-0.40317 0.0549,-0.0211 0.101,-0.0338 0.14242,-0.0338 z m 15.19208,0.60665 c 0.69015,-0.0127 1.36603,0.20074 1.8246,0.46572 0.55691,0.3216 1.15984,0.90424 1.46982,1.62605 0.11199,0.26075 0.18806,0.53857 0.21426,0.83279 -0.24596,-0.0127 -0.42349,-0.19693 -0.46994,-0.40147 a 0.27012308,0.27012308 0 0 0 -0.48092,-0.14961 0.27012308,0.27012308 0 0 0 -0.002,0.002 0.27012308,0.27012308 0 0 0 -0.008,0.0127 0.27012308,0.27012308 0 0 0 -0.0456,0.10438 c -0.038,0.10861 -0.20201,0.19989 -0.41331,0.14326 -0.21257,-0.0571 -0.30766,-0.21933 -0.2861,-0.33301 a 0.27012308,0.27012308 0 0 0 -0.43757,-0.28695 0.27012308,0.27012308 0 0 0 -0.008,0.004 0.27012308,0.27012308 0 0 0 -0.003,0.003 0.27012308,0.27012308 0 0 0 -0.0499,0.0672 c -0.063,0.098 -0.24681,0.14875 -0.44006,0.038 -0.18764,-0.10819 -0.23878,-0.2861 -0.19271,-0.39133 a 0.27012308,0.27012308 0 0 0 -0.3702,-0.38077 0.27012308,0.27012308 0 0 0 -0.0541,0.0456 c -0.0866,0.0773 -0.27638,0.0773 -0.43342,-0.0799 -0.14284,-0.14326 -0.21384,-0.41711 -0.17961,-0.57736 0.1196,-0.27385 0.20581,-0.51854 0.26075,-0.73999 0.0338,-0.002 0.0685,-0.004 0.10269,-0.004 z m -14.31543,0.43977 c 0.83338,1.69405 2.0059,2.69791 3.27515,3.63681 0.038,0.14707 0.0845,0.28991 0.14538,0.42696 h -1.56685 c -1.10495,-0.62617 -2.13408,-1.53921 -2.73198,-2.79663 a 0.23830449,0.23830449 0 0 0 -0.0338,-0.0727 c -0.10015,-0.21933 -0.18763,-0.44881 -0.2599,-0.68893 0.0338,-0.0127 0.0727,-0.0254 0.1103,-0.0423 a 0.23830449,0.23830449 0 0 0 0.0562,-0.0211 c 0.09,-0.0338 0.18721,-0.071 0.29117,-0.11326 0.24554,-0.0993 0.50202,-0.20454 0.71421,-0.33048 z m -1.66139,0.5269 c 0.0566,0.20327 0.12298,0.40021 0.19821,0.58979 -1.17333,0.17073 -2.07829,1.18456 -2.07829,2.40479 a 0.23830449,0.23830449 0 0 0 0,8.2e-4 c 6.4e-4,0.17749 0.0211,0.36006 0.0634,0.54144 h -0.52999 c -0.0169,-0.18299 -0.0296,-0.4057 -0.0296,-0.54229 0,-1.43457 1.02629,-2.71832 2.37681,-2.99458 z m 15.24153,0.52733 c 0.049,0.0756 0.10607,0.14622 0.16946,0.20919 0.19229,0.19228 0.45278,0.29625 0.70245,0.28737 0.0562,0.24342 0.22399,0.46863 0.45959,0.60466 0.23539,0.13608 0.5138,0.16905 0.75257,0.0959 0.11707,0.22102 0.33767,0.39471 0.60044,0.46516 0.2654,0.071 0.54592,0.0296 0.75849,-0.10692 0.18215,0.23412 0.4609,0.3964 0.77811,0.41331 a 0.27012308,0.27012308 0 0 0 0.008,0.038 c -0.0444,0.3178 -0.15003,0.65208 -0.33428,1.00263 h -5.71879 c 0.19525,-0.2506 0.36809,-0.49766 0.52691,-0.74552 a 0.27018885,0.27018885 0 0 0 0.003,-0.004 c 0.39682,-0.61882 0.71374,-1.24275 1.11424,-1.93684 0.0647,-0.11157 0.12382,-0.21849 0.18087,-0.32329 z m -14.8384,0.5193 c 0.5264,1.05304 1.33066,1.87358 2.21775,2.49024 h -3.94572 c -0.0516,-0.18214 -0.0778,-0.36767 -0.0786,-0.54313 4.2e-4,-1.03247 0.79442,-1.87286 1.8066,-1.94711 z m -3.41313,0.9351 c 0.0968,0.004 0.19482,0.0254 0.28695,0.0659 -0.0845,0.30428 -0.13059,0.62204 -0.13059,0.9471 0,0.14707 0.008,0.35034 0.0254,0.54233 h -0.38965 a 0.27022523,0.27022523 0 0 0 -0.0592,-0.11326 c -0.34696,-0.39302 -0.50434,-0.76542 -0.37527,-1.11339 0.0469,-0.12678 0.19482,-0.25187 0.4002,-0.30386 0.0769,-0.0211 0.15933,-0.0296 0.24216,-0.0254 z m -0.28357,2.09544 h 1.74899 a 0.23830449,0.23830449 0 0 0 0.15341,0 h 6.90372 a 0.27012313,0.27012313 0 0 0 0.0972,0 h 4.5488 a 0.27012313,0.27012313 0 0 0 0.142,0 h 2.53965 a 0.27019007,0.27019007 0 0 0 0.004,0 h 6.45057 a 0.27020507,0.27020507 0 0 0 0.004,0 h 0.5253 c 0.29371,0 0.52162,0.22821 0.52162,0.52205 0,0.29413 -0.22821,0.52238 -0.52162,0.52238 h -23.11792 c -0.29371,0 -0.52162,-0.22821 -0.52162,-0.52238 0,-0.29414 0.22821,-0.52205 0.52162,-0.52205 z m 1.06192,1.58431 h 20.99449 v 1.74705 a 0.27012313,0.27012313 0 0 0 0,0.008 c 0,1.78619 -1.42878,3.21561 -3.21362,3.21561 h -14.56767 c -1.78483,0 -3.2132,-1.42942 -3.2132,-3.21561 z m 1.17472,0.80553 a 0.27016316,0.27016316 0 1 0 0,0.5403 h 3.53539 a 0.27016316,0.27016316 0 1 0 0,-0.5403 z m 0.0296,1.26764 a 0.27016213,0.27016213 0 0 0 0,0.54031 h 1.75056 a 0.27016213,0.27016213 0 0 0 0,-0.54031 z"/></g><text x="0" y="41.458334" fill="#000000" font-size="5px" font-weight="bold" font-family="'Helvetica Neue', Helvetica, Arial-Unicode, Arial, Sans-serif">Created by Rusmaniah</text><text x="0" y="46.458334" fill="#000000" font-size="5px" font-weight="bold" font-family="'Helvetica Neue', Helvetica, Arial-Unicode, Arial, Sans-serif">from the Noun Project</text></svg>