<svg xmlns="http://www.w3.org/2000/svg" xmlns:xlink="http://www.w3.org/1999/xlink" version="1.1" baseProfile="basic" x="0px" y="0px" viewBox="0 0 90 112.5" xml:space="preserve"><g><g><path d="M41.6,79.587c-0.908,0.001-1.817-0.024-2.731-0.075C20.494,78.503,4.925,67.428,0.127,51.954    c-0.28-0.899-0.091-1.887,0.505-2.642l1.161-1.47c0.499-0.631,1.244-1.03,2.045-1.093c0.803-0.064,1.608,0.217,2.204,0.767    c7.291,6.735,18.088,10.961,29.624,11.596c22.168,1.202,40.899-10.887,41.784-26.981c0.021-0.408,0.289-0.76,0.676-0.892    c3.844-1.31,7.514-1.291,11.219,0.064c0.338,0.124,0.584,0.42,0.643,0.775c0.06,0.355-0.077,0.715-0.357,0.942    c-3.35,2.707-4.852,6.28-6.579,12.326c-0.57,9.759-5.477,18.681-13.825,25.133C61.566,76.398,51.843,79.587,41.6,79.587z     M4.066,48.741c-0.024,0-0.048,0.001-0.073,0.003c-0.25,0.02-0.475,0.14-0.631,0.338l-1.161,1.471l0,0    c-0.187,0.236-0.248,0.538-0.164,0.809c4.552,14.68,19.397,25.19,36.941,26.154c10.763,0.59,21.067-2.47,29.024-8.618    c7.914-6.116,12.551-14.559,13.058-23.773c0.004-0.074,0.016-0.148,0.036-0.219c1.583-5.557,3.076-9.332,5.932-12.225    c-2.521-0.627-4.995-0.544-7.63,0.25c-1.427,16.85-20.908,29.442-43.842,28.178C23.563,60.45,12.31,56.031,4.683,48.985    C4.512,48.826,4.294,48.741,4.066,48.741z M1.416,49.933h0.01H1.416z"/><path d="M54.803,67.683c-0.413,0-0.8-0.258-0.943-0.669c-0.183-0.521,0.092-1.092,0.612-1.274    c4.585-1.607,8.925-4.061,12.899-7.295c0.429-0.349,1.06-0.283,1.406,0.145c0.349,0.429,0.284,1.058-0.145,1.406    c-4.154,3.38-8.696,5.947-13.499,7.631C55.024,67.666,54.912,67.683,54.803,67.683z"/><path d="M43.387,70.015c-0.52,0-0.958-0.402-0.997-0.929c-0.04-0.551,0.375-1.029,0.926-1.068    c1.456-0.104,2.909-0.279,4.318-0.519c0.543-0.086,1.061,0.274,1.153,0.819c0.092,0.544-0.274,1.061-0.819,1.153    c-1.472,0.249-2.989,0.432-4.508,0.54C43.435,70.014,43.411,70.015,43.387,70.015z"/></g><g><path d="M37.724,61.189c-0.251,0-0.503-0.094-0.698-0.283c-0.396-0.386-0.404-1.019-0.019-1.414    c3.046-3.129,5.344-7.792,6.471-13.13c0.945-5.596-0.796-10.696-4.665-13.602c-3.492-2.624-8.168-2.939-12.507-0.844    c-0.274,0.133-0.595,0.133-0.869,0c-4.341-2.094-9.016-1.779-12.507,0.844c-3.869,2.906-5.609,8.006-4.657,13.642    c0.263,1.24,0.607,2.503,1.015,3.712c0.177,0.522-0.104,1.09-0.627,1.267c-0.523,0.179-1.091-0.104-1.267-0.628    c-0.433-1.282-0.798-2.621-1.084-3.977c-1.087-6.429,0.942-12.251,5.42-15.615c3.984-2.992,9.239-3.447,14.142-1.248    c4.904-2.199,10.159-1.745,14.142,1.248c4.478,3.364,6.507,9.186,5.428,15.575c-1.211,5.743-3.696,10.754-7.003,14.15    C38.244,61.088,37.984,61.189,37.724,61.189z"/><path d="M33.835,24.066c0.06-0.216,0.112-0.435,0.16-0.657c0.049-0.228,0.095-0.458,0.133-0.692    c0.05-0.31,0.083-0.577,0.111-0.848c0.032-0.307,0.055-0.617,0.07-0.929c-1.866,0.075-3.427,0.703-4.65,1.873    c-1.835,1.754-2.824,4.663-2.786,8.192c0.006,0.552-0.437,1.005-0.989,1.011c-0.003,0-0.007,0-0.011,0    c-0.547,0-0.994-0.44-1-0.989c-0.044-4.088,1.165-7.519,3.404-9.66c1.818-1.738,4.281-2.575,7.106-2.416    c0.526,0.029,0.938,0.461,0.944,0.988c0.007,0.713-0.026,1.432-0.099,2.136c-0.032,0.309-0.07,0.612-0.118,0.91    c-0.053,0.321-0.105,0.586-0.162,0.848c-0.056,0.258-0.117,0.513-0.186,0.762c-0.001,0.006-0.027,0.103-0.029,0.109    c-0.173,0.598-0.355,1.109-0.559,1.582c-0.001,0.003-0.047,0.104-0.049,0.107c-0.711,1.607-1.711,2.903-2.97,3.854    c-0.442,0.332-1.068,0.245-1.401-0.196c-0.333-0.441-0.245-1.068,0.196-1.401c0.985-0.743,1.774-1.775,2.346-3.067    C33.509,25.099,33.703,24.521,33.835,24.066z"/><path d="M25.873,32.016c-0.003,0-0.007,0-0.011,0c-0.552-0.006-0.995-0.458-0.989-1.011c0.045-4.164-1.349-7.445-3.826-9.005    c-0.467-0.294-0.608-0.912-0.313-1.379c0.293-0.467,0.912-0.607,1.379-0.313c3.078,1.938,4.813,5.845,4.76,10.719    C26.867,31.576,26.42,32.016,25.873,32.016z"/><path d="M12.129,47.702c-0.479,0-0.902-0.345-0.985-0.833c-0.062-0.366-0.11-0.729-0.145-1.084    c-0.606-6.203,2.762-11.329,8.19-12.467c0.54-0.113,1.071,0.233,1.184,0.773c0.114,0.541-0.233,1.07-0.773,1.184    c-4.395,0.922-7.114,5.163-6.61,10.315c0.031,0.31,0.072,0.626,0.126,0.945c0.092,0.544-0.274,1.061-0.819,1.153    C12.24,47.697,12.184,47.702,12.129,47.702z"/></g><g><path d="M46.01,60.718c-0.279,0-0.558-0.117-0.755-0.345c-1.798-2.074-3.104-4.569-3.777-7.216    c-0.136-0.535,0.187-1.079,0.723-1.215c0.535-0.138,1.08,0.186,1.216,0.723c0.597,2.346,1.755,4.559,3.35,6.397    c0.361,0.417,0.316,1.049-0.101,1.411C46.476,60.638,46.242,60.718,46.01,60.718z"/><path d="M74.566,44.762c-0.425,0-0.819-0.273-0.954-0.7c-0.559-1.775-1.425-3.424-2.574-4.903    c-1.144-1.471-1.756-3.275-1.726-5.081l0.002-0.182c0-2.975-1.255-5.838-3.443-7.855c-2.22-2.046-5.113-3.037-8.137-2.79    c-4.676,0.381-8.606,3.866-9.559,8.474c-0.163,0.785-0.237,1.586-0.222,2.381c0.035,1.798-0.558,3.567-1.669,4.98    c-0.375,0.476-0.725,0.979-1.042,1.495c-0.289,0.469-0.905,0.617-1.375,0.329c-0.471-0.289-0.618-0.905-0.329-1.375    c0.357-0.582,0.752-1.148,1.174-1.685c0.827-1.051,1.268-2.366,1.241-3.704c-0.019-0.944,0.07-1.895,0.263-2.826    c1.131-5.472,5.8-9.609,11.355-10.062c3.595-0.291,7.02,0.884,9.654,3.312c2.598,2.395,4.088,5.794,4.088,9.326l-0.002,0.214    c-0.023,1.354,0.44,2.71,1.305,3.822c1.295,1.666,2.272,3.527,2.903,5.53c0.166,0.526-0.127,1.088-0.653,1.254    C74.766,44.747,74.666,44.762,74.566,44.762z"/><g><path d="M68.446,44.085c-0.4,0-0.778-0.243-0.933-0.639c-0.118-0.306-0.251-0.606-0.396-0.902     c-0.382-0.776-0.854-1.511-1.402-2.181c-0.35-0.428-0.286-1.058,0.142-1.407c0.428-0.351,1.057-0.285,1.407,0.142     c0.644,0.788,1.198,1.65,1.649,2.565c0.17,0.348,0.326,0.702,0.466,1.061c0.199,0.515-0.057,1.094-0.571,1.294     C68.689,44.063,68.566,44.085,68.446,44.085z"/></g><path d="M58.021,23.215c-0.488,0-0.983-0.035-1.473-0.104c-0.277-0.039-0.552-0.085-0.816-0.146    c-0.013-0.003-0.117-0.03-0.131-0.033l0.205-0.98l-0.242,0.97c-0.223-0.056-0.438-0.119-0.65-0.189    c-2.368-0.786-4.204-2.522-5.31-5.021l-0.051-0.109c-0.197-0.459-0.375-0.958-0.524-1.477l-0.044-0.157    c-0.069-0.253-0.129-0.501-0.184-0.753c-0.055-0.254-0.106-0.513-0.149-0.776c-0.055-0.342-0.092-0.638-0.122-0.937    c-0.072-0.687-0.104-1.387-0.098-2.082c0.006-0.526,0.418-0.959,0.944-0.988c2.758-0.156,5.16,0.661,6.935,2.358    c2.184,2.088,3.362,5.433,3.319,9.418c-0.006,0.527-0.419,0.958-0.944,0.988C58.46,23.208,58.225,23.211,58.021,23.215z     M50.452,12.422c0.015,0.292,0.037,0.584,0.066,0.873c0.028,0.264,0.06,0.524,0.1,0.78c0.046,0.271,0.09,0.494,0.139,0.715    c0.047,0.215,0.097,0.428,0.154,0.636c0.001,0.005,0.026,0.098,0.027,0.103c0.139,0.48,0.288,0.899,0.455,1.287    c0.924,2.083,2.307,3.406,4.15,4.018c0.164,0.055,0.333,0.104,0.505,0.147c0.002,0,0.003,0.001,0.005,0.001    c0.005,0.001,0.068,0.019,0.074,0.02c0.26,0.062,0.478,0.098,0.698,0.128c0.267,0.038,0.527,0.063,0.788,0.075    c-0.14-2.982-1.078-5.433-2.685-6.969C53.751,13.109,52.248,12.5,50.452,12.422z"/><path d="M58.635,23.215c-0.548,0-0.994-0.44-1-0.989c-0.052-4.752,1.641-8.561,4.644-10.452c0.471-0.293,1.085-0.153,1.38,0.313    c0.294,0.467,0.153,1.085-0.313,1.379c-2.402,1.512-3.754,4.697-3.71,8.738c0.006,0.552-0.437,1.005-0.989,1.011    C58.642,23.215,58.639,23.215,58.635,23.215z"/></g></g><text x="0" y="105" fill="#000000" font-size="5px" font-weight="bold" font-family="'Helvetica Neue', Helvetica, Arial-Unicode, Arial, Sans-serif">Created by iconpacks</text><text x="0" y="110" fill="#000000" font-size="5px" font-weight="bold" font-family="'Helvetica Neue', Helvetica, Arial-Unicode, Arial, Sans-serif">from the Noun Project</text></svg>