<svg xmlns="http://www.w3.org/2000/svg" xmlns:xlink="http://www.w3.org/1999/xlink" version="1.1" x="0px" y="0px" viewBox="0 0 100 125" style="enable-background:new 0 0 100 100;" xml:space="preserve"><title>Zuivel</title><g><path d="M49.2,64.3c0,0.4,0.3,0.7,0.7,0.7s0.7-0.3,0.7-0.7v-4c0-0.4-0.3-0.7-0.7-0.7s-0.7,0.3-0.7,0.7V64.3z"/><path d="M29.3,69.8L29.3,69.8c0.2-1.5-0.6-2.8-1.9-3.2c-0.1,0-0.2-0.1-0.3-0.1c-0.6-0.2-1.2-0.1-1.8,0.2c-0.5,0.3-0.9,0.8-1.1,1.5   c-0.2,1.4,0.6,2.7,1.9,3.1c0.1,0,0.2,0.1,0.3,0.1c0.2,0.1,0.4,0.1,0.6,0.1C28.1,71.5,29,70.8,29.3,69.8z M28.3,69.6   c-0.2,0.7-0.9,1.1-1.6,0.9c-0.1,0-0.1,0-0.3-0.1c-0.9-0.3-1.4-1.1-1.3-2c0.1-0.3,0.3-0.6,0.6-0.8c0.2-0.1,0.4-0.2,0.6-0.2   c0.1,0,0.2,0,0.4,0.1c0.1,0,0.1,0,0.3,0.1C27.9,67.8,28.5,68.7,28.3,69.6z"/><path d="M32.2,73.9c-0.2-0.1-0.4-0.2-0.6-0.2c-0.6-0.2-1.3-0.1-1.9,0.3c-0.6,0.3-1,0.9-1.1,1.6c-0.2,1.5,0.7,3,2.1,3.4   c0.2,0.1,0.3,0.1,0.5,0.2s0.4,0.1,0.6,0.1c1.1,0,2.1-0.8,2.4-1.9c0,0,0,0,0-0.1C34.5,75.8,33.6,74.3,32.2,73.9z M33.3,77.1   c-0.2,0.8-1,1.3-1.8,1.1c-0.1,0-0.2-0.1-0.4-0.1c-1-0.3-1.7-1.3-1.5-2.3c0.1-0.4,0.3-0.7,0.7-0.9c0.2-0.1,0.5-0.2,0.8-0.2   c0.1,0,0.2,0,0.4,0c0.1,0,0.2,0.1,0.4,0.2C32.9,75.1,33.5,76.1,33.3,77.1z"/><path d="M34.1,67.4c-0.1-0.1-0.2-0.1-0.3-0.1c-0.5-0.2-1-0.1-1.5,0.1s-0.8,0.6-1,1.2c-0.2,1.2,0.4,2.3,1.5,2.7   c0.1,0.1,0.2,0.1,0.3,0.1c0.2,0.1,0.4,0.1,0.6,0.1c0.3,0,0.6-0.1,0.8-0.2c0.5-0.2,0.8-0.6,1-1.1v-0.1   C35.8,68.9,35.2,67.8,34.1,67.4z M34.2,70.4c-0.2,0.1-0.5,0.1-0.7,0c-0.1,0-0.1,0-0.2-0.1c-0.7-0.3-1.1-1-1-1.6   c0.1-0.2,0.3-0.4,0.5-0.5c0.1-0.1,0.3-0.1,0.4-0.1c0.1,0,0.2,0,0.3,0.1c0.1,0,0.1,0,0.2,0.1c0.6,0.3,1,0.9,0.9,1.6   C34.6,70.1,34.4,70.3,34.2,70.4z"/><path d="M80.8,58.4c0-3.7-0.1-7.9-0.3-12.6c0-0.8-0.1-1.7-0.1-2.6c-0.1-3.5-0.2-7-1.5-10.4c-0.8-2-2.2-3.7-3.7-5.4   c-1.6-1.9-3.1-3.7-3.7-5.8c-0.1-0.8-0.2-1.6-0.2-2.4c1.2-0.2,2-1.2,2-2.4v-3.1c0-1.4-1.1-2.5-2.5-2.5H55.6c-1.4,0-2.5,1.1-2.5,2.5   v3.1c0,1.2,0.9,2.2,2,2.4c0,0.8-0.1,1.6-0.2,2.4c-0.6,2.1-2.2,4-3.7,5.8c-1.4,1.7-2.9,3.5-3.6,5.4c-1.3,3.3-1.4,7-1.5,10.5   c0,0.8,0,1.6-0.1,2.4c-0.2,3.9-0.3,8-0.4,12.6c-0.1,4.8-0.1,9.1-0.1,13.1c-0.1,0.2-0.2,0.5-0.3,0.7c-0.9-0.6-1.8-1.2-2.7-1.9   c-0.3-0.2-0.6-0.2-0.9,0c-0.5,0.4-1.1,0.4-1.6,0.2c0,0-0.1,0-0.1-0.1c-0.9-0.3-1.4-1.1-1.3-2c0-0.3-0.1-0.6-0.4-0.8l-1.1-0.6   c-4.9-2.6-5.9-3.2-8-4.5c-1-0.5-2.2-0.3-2.9,0.4l-12,10.9l0,0c-0.1,0-0.1,0-0.2,0.1c-0.2,0.1-0.3,0.2-0.5,0.3   c-2.2,1.7-3.1,8.2-1.6,12.5c0.8,2.5,2.4,3.9,4.4,3.9l0,0l28.2-0.1h0.1c1.4,2.9,4.2,4,6.8,4c2.4,0,5-0.9,6.4-3.3   c1.1,0.4,2.2,0.7,3.3,0.7c1.4,0,2.9-0.3,4.1-1h7l0,0c4.5,0,8.1-3.5,8.3-8C80.8,75.6,80.9,67.8,80.8,58.4z M55.7,12.7h1v5.1l0,0h-1   V12.7z M57.7,12.7h1v5.1h-1V12.7z M59.7,12.7h1v5.1h-1V12.7z M61.7,12.7h1v5.1h-1V12.7z M63.7,12.7h1v5.1h-1   C63.7,17.8,63.7,12.7,63.7,12.7z M65.7,12.7h1v5.1h-1V12.7z M67.7,12.7h1v5.1h-1V12.7z M69.7,12.7h1v5.1h-1l0,0V12.7z M71.8,16.8   c0,0.1,0,0.3-0.1,0.4v-3.9c0.1,0.1,0.1,0.3,0.1,0.4V16.8z M54.6,13.7c0-0.2,0-0.3,0.1-0.4v4c-0.1-0.1-0.1-0.3-0.1-0.4V13.7z    M51.4,72.5c-2.7,0-4.8,2.7-6.2,5.9c0.4-4.9,3.2-10.6,6.2-10.6c1.9,0,3.7,2.3,4.9,5.3c-0.3,0.5-0.6,1-0.9,1.6   C54.3,73.4,53,72.5,51.4,72.5z M43.8,81.3c-0.1,0-0.1,0.1-0.2,0.1c-0.2,0.1-0.5,0.1-0.7,0c-0.1,0-0.1,0-0.2-0.1   c-0.7-0.3-1.1-1-0.9-1.6c0.1-0.2,0.3-0.4,0.5-0.5c0.1-0.1,0.3-0.1,0.4-0.1c0.1,0,0.2,0,0.3,0.1c0.1,0,0.1,0,0.2,0.1   c0.2,0.1,0.4,0.2,0.5,0.4l0,0C43.7,80.3,43.7,80.8,43.8,81.3z M16.3,88.9c-1.3,0-2.3-1-3-2.9c-0.1-0.2-0.1-0.5-0.2-0.7   c0-0.1,0-0.2-0.1-0.2c0-0.2-0.1-0.3-0.1-0.5c0-0.1,0-0.2-0.1-0.3c0-0.1,0-0.3-0.1-0.4c0-0.1,0-0.3,0-0.4s0-0.2,0-0.3   c-0.2-2.7,0.2-5.7,1-7.3c0.1-0.1,0.1-0.2,0.2-0.3l0.1-0.1l0.1-0.1c0.1-0.1,0.2-0.2,0.2-0.2c0.1-0.1,0.2-0.1,0.4-0.1h0.1   c0.1,0,0.1,0,0.2,0c0.1,0,0.1,0.1,0.2,0.1c4.7,3.2,19.6,10.5,26,13.6L16.3,88.9z M22,77.5c-1-0.6-2-1.1-2.9-1.6   c0.4-0.4,1-0.5,1.5-0.3C21.5,75.9,22.1,76.6,22,77.5z M22.9,78c0-0.1,0-0.1,0.1-0.2c0.2-1.4-0.6-2.7-2-3.1c-1-0.4-2.1-0.1-2.8,0.7   c-0.8-0.5-1.6-1-2.1-1.3l0,0l11.2-9.9c0.3-0.3,0.7-0.4,1.1-0.2c2.1,1.3,3.2,1.9,8,4.5l0.7,0.4c0,1.4,0.9,2.6,2.3,3.1   c0.9,0.4,1.9,0.4,2.7,0c0.9,0.6,1.8,1.2,2.6,1.8c-0.5,1.6-0.9,3.3-1,4.8c-0.1,0-0.1-0.1-0.2-0.1c-0.1-0.1-0.2-0.1-0.3-0.1   c-0.5-0.2-1-0.1-1.5,0.1s-0.8,0.6-1,1.2c-0.2,1.2,0.4,2.3,1.5,2.7c0.1,0.1,0.2,0.1,0.3,0.1c0.2,0.1,0.4,0.1,0.6,0.1   c0.3,0,0.5-0.1,0.8-0.2c0,0.1,0,0.1,0,0.2c-0.2,1.2-0.3,2.3-0.3,3.3s0.1,1.9,0.3,2.6C40.9,87.1,30.5,82,22.9,78z M51.4,92.9   c-3.9,0-6.2-2.6-6.2-7c0-5.2,3-11.9,6.2-11.9s6.2,6.7,6.2,11.9C57.7,90.3,55.3,92.9,51.4,92.9z M58.5,89.8c0.4-1.1,0.6-2.3,0.6-3.9   c0-3-1-6.9-2.7-9.7c1.2-2.7,2.9-4.8,4.7-4.8c3.2,0,6.2,6.7,6.2,11.9c0,4.4-2.3,7-6.2,7C60.2,90.2,59.3,90.1,58.5,89.8z M79.1,82.7   c-0.1,3.7-3.1,6.5-6.8,6.5l0,0h-5.2c0.4-0.5,0.8-1.2,1.1-1.9c1.6-0.3,3.2-0.7,4.8-1.2c2.6-0.9,4.3-3.4,4.3-6.1V42l0,0l0,0   c0-2.3-9.8-2.5-14-2.5c-4,0-13.2,0.2-14,2.2l0,0c0,0.1-0.1,0.2-0.1,0.3v12.2c0,0.4,0.3,0.7,0.7,0.7s0.7-0.3,0.7-0.7v-11   c2.9,1.1,9.4,1.2,12.6,1.2s9.8-0.1,12.6-1.2V80c0,2.1-1.3,4.1-3.3,4.8c-1.3,0.4-2.6,0.8-3.9,1c0.1-0.4,0.1-0.8,0.2-1.2   c2.1-0.5,4.6-1.4,5.7-3.3c0.1-0.2,0-0.5-0.2-0.7c-0.2-0.1-0.5,0-0.7,0.2c-0.9,1.5-2.9,2.4-4.8,2.8c0-0.1,0-0.2,0-0.3   c0-5.3-3.1-13.4-7.8-13.4c-1.4,0-2.7,0.8-3.8,1.9c-1.4-3-3.4-5.4-6-5.4c-1.7,0-3.1,1-4.3,2.6c0-3.3,0-6.8,0.1-10.6   c0.1-4.5,0.2-8.6,0.4-12.5c0-0.8,0.1-1.6,0.1-2.4c0.1-3.4,0.2-7,1.4-10.1c0.7-1.7,2-3.3,3.4-5c1.7-2,3.4-4.1,4.1-6.5v-0.1   c0.1-0.9,0.2-1.8,0.2-2.6h13.2c0,0.9,0.1,1.8,0.2,2.6v0.1c0.6,2.4,2.4,4.5,4,6.4c1.4,1.7,2.7,3.2,3.4,5c1.2,3.1,1.3,6.5,1.4,9.9   c0,0.9,0,1.7,0.1,2.6c0.2,4.7,0.3,8.8,0.3,12.5C79.4,67.8,79.3,75.5,79.1,82.7z M75.4,42c-1.5,0.5-5.9,1.1-12.2,1.1   S52.4,42.5,51,42c1.5-0.5,5.9-1.1,12.2-1.1C69.6,40.8,74,41.4,75.4,42z"/></g><text x="0" y="115" fill="#000000" font-size="5px" font-weight="bold" font-family="'Helvetica Neue', Helvetica, Arial-Unicode, Arial, Sans-serif">Created by RROOK</text><text x="0" y="120" fill="#000000" font-size="5px" font-weight="bold" font-family="'Helvetica Neue', Helvetica, Arial-Unicode, Arial, Sans-serif">from the Noun Project</text></svg>