<svg xmlns="http://www.w3.org/2000/svg" viewBox="0 0 64 80" x="0px" y="0px"><path d="m11.14,29.97c1.1,0,2.35-.28,3.74-.83,2.74-1.1,5.73-3.18,8.41-5.86,2.68-2.68,4.76-5.67,5.86-8.41,1.2-3.01,1.09-5.45-.32-6.86-1.41-1.41-3.85-1.52-6.86-.32-2.74,1.1-5.73,3.18-8.41,5.86-2.68,2.68-4.76,5.67-5.86,8.41-1.2,3.01-1.09,5.45.32,6.86.76.76,1.83,1.15,3.12,1.15Zm3.83-15c4.06-4.06,8.25-6.11,10.71-6.11.75,0,1.34.19,1.72.57,1.63,1.63-.24,7.14-5.54,12.44-5.3,5.3-10.81,7.17-12.44,5.54s.24-7.14,5.54-12.44Zm4.13,4.7c1.26,0,2.8-.95,3.98-2.13,1.67-1.67,2.88-4.07,1.58-5.37-1.3-1.3-3.7-.09-5.37,1.58s-2.88,4.07-1.58,5.37c.38.38.86.55,1.39.55Zm1.61-4.51c1.1-1.1,2.1-1.5,2.5-1.54-.03.4-.43,1.39-1.54,2.5s-2.1,1.5-2.5,1.54c.03-.4.43-1.39,1.54-2.5Zm39.27,35.09c-1.25-1.25-3.29-1.49-4.77-.62l-5.6-5.6.68-.68c1.15-1.15,1.15-3.03,0-4.18l-2.9-2.89c-1.47-1.47-2.2-3.5-1.99-5.55l.15-1.38c.59-5.86-1.47-11.61-5.63-15.78l-8.32-8.32c-4.49-4.5-13.05-2.22-20.8,5.54C3.04,18.55.76,27.1,5.25,31.6l8.32,8.32c4.17,4.17,9.92,6.23,15.78,5.63l1.37-.14c2.06-.21,4.09.52,5.56,1.99l2.89,2.89c.58.58,1.33.87,2.09.87s1.52-.29,2.09-.87l.68-.68,5.6,5.6c-.88,1.51-.67,3.48.62,4.77.77.77,1.78,1.15,2.78,1.15s2.02-.38,2.79-1.15c.82-.82,1.21-1.93,1.14-3.01,1.11.07,2.21-.35,3.01-1.15.75-.74,1.16-1.73,1.16-2.78s-.41-2.04-1.16-2.79ZM12.21,12.21c6.92-6.92,14.31-9.2,17.98-5.54,3.66,3.66,1.38,11.05-5.54,17.98-6.92,6.92-14.31,9.2-17.98,5.54-3.66-3.66-1.38-11.05,5.54-17.98Zm28.39,36.67l-2.89-2.89c-1.68-1.68-3.93-2.61-6.28-2.61-.3,0-.59.01-.89.04l-1.37.14c-5.26.53-10.42-1.32-14.17-5.06l-4.67-4.67c.26.02.52.04.79.04,4.41,0,9.85-2.73,14.94-7.83,5.41-5.41,8.14-11.2,7.78-15.73l4.67,4.67c3.74,3.74,5.58,8.9,5.06,14.16l-.15,1.38c-.27,2.66.67,5.27,2.57,7.17l2.9,2.89c.18.18.28.42.28.68s-.1.5-.28.68l-6.93,6.92c-.36.36-1,.36-1.36,0Zm17.98,5.54c-.76.76-1.99.76-2.74,0-.39-.39-1.02-.39-1.41,0-.2.2-.29.45-.29.71s.1.51.29.71c.76.76.76,1.99,0,2.74-.76.76-1.99.76-2.74,0-.76-.76-.76-1.99,0-2.74.39-.39.39-1.02,0-1.41l-6.22-6.22,2.74-2.74,6.22,6.22c.39.39,1.02.39,1.41,0,.76-.75,1.98-.75,2.74,0,.37.37.57.85.57,1.37s-.2,1-.57,1.37Z"/><text x="0" y="79" fill="#000000" font-size="5px" font-weight="bold" font-family="'Helvetica Neue', Helvetica, Arial-Unicode, Arial, Sans-serif">Created by Andi Nur Abdillah</text><text x="0" y="84" fill="#000000" font-size="5px" font-weight="bold" font-family="'Helvetica Neue', Helvetica, Arial-Unicode, Arial, Sans-serif">from the Noun Project</text></svg>